<svg xmlns="http://www.w3.org/2000/svg" viewBox="0 0 64 64">
  <defs>
    <linearGradient id="g" x1="0" y1="0" x2="1" y2="1">
      <stop offset="0%" stop-color="#0ea5e9"/>
      <stop offset="100%" stop-color="#34d399"/>
    </linearGradient>
  </defs>
  <rect x="4" y="4" width="56" height="56" rx="14" fill="#0b1220"/>
  <rect x="6" y="6" width="52" height="52" rx="12" fill="none" stroke="url(#g)" stroke-width="2"/>
  <path d="M20 45V19h12c7 0 12 4 12 11s-5 11-12 11h-6v4h-6zm6-10h5c4 0 7-2 7-5s-3-5-7-5h-5v10z" fill="#e2e8f0"/>
  <path d="M46 19v16c0 7-4 11-11 11-5 0-9-2-11-6l5-3c1 2 3 3 6 3 3 0 5-2 5-6V19h6z" fill="url(#g)"/>
</svg>
